<svg width="97" height="26" viewBox="0 0 97 26" fill="none" xmlns="http://www.w3.org/2000/svg">
<path d="M95.7895 8.61521C95.8641 8.53667 95.9014 8.43375 95.9014 8.30375C95.9014 8.21167 95.8842 8.13313 95.844 8.07354C95.8067 8.01396 95.7465 7.95979 95.6633 7.91646C95.5944 7.87854 95.5199 7.85417 95.451 7.84604C95.3707 7.83521 95.2732 7.82979 95.1556 7.82979H94.4958V9.53333H94.9232V8.91042H95.0953L95.6231 9.53604H96.1653L95.5113 8.80479C95.6231 8.75604 95.7207 8.69375 95.7895 8.61521ZM95.4023 8.46354C95.3879 8.49875 95.3621 8.52042 95.3277 8.54208C95.3019 8.56646 95.2588 8.58271 95.2043 8.59083C95.147 8.60167 95.0896 8.60979 95.0265 8.60979H94.9232V8.13042H95.0552C95.1211 8.13042 95.1757 8.13313 95.2101 8.13583C95.2531 8.14125 95.2904 8.15208 95.3219 8.16833C95.3592 8.19 95.3908 8.21167 95.4051 8.24146C95.4166 8.27125 95.4281 8.30646 95.4281 8.34167C95.4252 8.38771 95.4137 8.42833 95.4023 8.46354ZM96.4693 7.51833C96.1165 7.1825 95.6891 7.01729 95.19 7.01729C94.6909 7.01729 94.2606 7.1825 93.9078 7.51833C93.555 7.85146 93.3829 8.25229 93.3829 8.72896C93.3829 9.1975 93.5578 9.60104 93.9078 9.93417C94.2577 10.27 94.688 10.4352 95.19 10.4352C95.6891 10.4352 96.1165 10.27 96.4693 9.93417C96.8222 9.60104 97 9.1975 97 8.72896C97 8.25229 96.8222 7.85146 96.4693 7.51833ZM96.1882 9.67146C95.91 9.93417 95.5772 10.0696 95.19 10.0696C94.7999 10.0696 94.4671 9.93146 94.1918 9.67146C93.9193 9.40604 93.7787 9.09458 93.7787 8.72896C93.7787 8.36063 93.9221 8.04375 94.1918 7.77833C94.4671 7.51563 94.7999 7.38292 95.19 7.38292C95.5772 7.38292 95.91 7.51563 96.1882 7.77833C96.4607 8.04375 96.6013 8.35792 96.6013 8.72896C96.6013 9.09188 96.4607 9.40333 96.1882 9.67146ZM79.7089 19.8737L75.4836 8.53125H67.908L75.257 25.675H83.8997L91.3032 8.53125H83.8739L79.7089 19.8737ZM17.38 11.551C17.3628 11.5456 17.3456 11.5402 17.3284 11.5348C17.8332 11.329 18.2291 11.161 18.5073 10.985C20.1911 9.89083 21.3098 8.08167 21.3098 6.00708C21.3098 2.71917 18.5131 0.0514583 15.0365 0.01625L15.4323 0.0135417L0 0.00541667V25.675H12.6671C12.9052 25.675 13.1404 25.6696 13.3756 25.6642H16.4076L16.8035 25.656C20.9312 25.5179 23.6361 22.3221 23.6361 18.3923C23.6361 14.9744 20.7419 12.3338 17.38 11.551ZM7.38343 4.73688H11.0178C11.4739 4.75042 11.8783 4.81 12.2455 4.91563C13.0458 5.22438 13.6625 5.86625 13.9063 6.66521C13.9579 6.86563 13.9838 7.06333 13.9838 7.26375C13.9838 7.75125 13.9006 8.18729 13.7457 8.57188C13.5592 8.95104 13.281 9.27875 12.9368 9.53604C12.822 9.60917 12.6844 9.68229 12.5438 9.74458C12.0418 9.96396 11.5628 10.0858 11.0952 10.1075C10.6248 10.1319 10.4011 10.1427 9.23359 10.1427H7.38343V4.73688ZM14.3366 20.2719C13.6682 20.6808 12.8737 20.9192 12.016 20.9273H12.0074H7.38343V14.5546H11.3018C11.5829 14.5546 11.8181 14.5627 11.9529 14.5627C12.6786 14.579 13.2466 14.6656 13.6625 14.8119C13.7686 14.8471 13.8776 14.8877 13.9866 14.9283C15.0537 15.4429 15.7852 16.4883 15.7852 17.6962C15.7852 18.7687 15.2086 19.7113 14.3366 20.2719ZM39.2234 8.57458L32.841 16.2771V0H25.6642V25.675H32.8382L35.9246 21.9727L38.7931 25.675H46.9711L40.0753 16.9271L46.9941 8.57458H39.2234ZM65.5387 9.24625C64.0758 8.23875 60.5189 7.73771 57.3205 7.73771C56.0182 7.73771 54.7332 7.87042 53.4452 8.05729C51.8446 8.29292 50.0346 8.7425 48.9131 9.18396L50.9669 13.111C52.3466 12.3067 53.646 11.9302 55.3958 11.681C56.3481 11.5429 57.3722 11.524 58.2614 11.6377C58.881 11.7163 59.4633 11.895 59.9021 12.2092C60.4902 12.6019 60.7799 13.2167 60.7799 14.0671V14.1971C57.9258 14.2648 55.086 14.411 52.7281 15.061C50.2957 15.7354 47.7571 17.7775 47.7571 20.4804C47.7571 23.5219 50.5682 25.9865 53.7894 25.9865C53.8755 25.9865 54.6729 26 54.6729 26C56.7784 25.8862 59.1047 25.2308 60.7483 24.18L61.9474 25.6994H67.7359V13.7583C67.7331 11.6919 67.0016 10.2537 65.5387 9.24625ZM60.7455 20.9977C60.7455 20.9977 59.2625 22.49 57.3607 22.49C57.2431 22.49 57.1398 22.4846 57.0394 22.471C56.9878 22.4683 56.9419 22.4575 56.8931 22.4548C56.8644 22.4521 56.83 22.444 56.8013 22.4412C55.6826 22.2327 54.8422 21.3038 54.8422 20.1879C54.8422 19.0775 55.6769 18.1513 56.7899 17.94C56.8099 17.9346 56.83 17.9292 56.853 17.921C57.8397 17.7125 60.7455 17.4579 60.7455 17.4579V20.9977Z" fill="#F05A22"/>
</svg>
